<?xml version="1.0" standalone="no"?>
<!DOCTYPE svg PUBLIC "-//W3C//DTD SVG 20010904//EN"
 "http://www.w3.org/TR/2001/REC-SVG-20010904/DTD/svg10.dtd">
<svg version="1.0" xmlns="http://www.w3.org/2000/svg"
 width="225.000000pt" height="225.000000pt" viewBox="0 0 225.000000 225.000000"
 preserveAspectRatio="xMidYMid meet">

<g transform="translate(0.000000,225.000000) scale(0.100000,-0.100000)"
fill="#000000" stroke="none">
<path d="M0 1125 l0 -1125 1125 0 1125 0 0 1125 0 1125 -1125 0 -1125 0 0
-1125z m1221 563 l98 -103 1 79 c0 68 -3 83 -22 103 l-21 23 91 0 92 0 0 -125
c0 -68 -5 -148 -11 -177 -11 -53 -51 -142 -67 -152 -5 -3 -62 52 -128 123
l-119 127 -3 -79 -3 -79 86 -89 c47 -50 85 -93 85 -97 0 -8 -94 -77 -144 -107
l-33 -19 -69 44 c-136 89 -228 207 -253 328 -12 59 -15 292 -3 291 4 0 48 -44
97 -97 l90 -97 3 79 c3 70 0 81 -19 102 l-22 24 88 0 89 0 97 -102z m687 -702
c12 -7 17 -96 7 -96 -3 0 -20 10 -36 23 -41 30 -116 30 -156 1 -37 -27 -57
-91 -48 -150 17 -113 121 -146 246 -77 4 2 2 -16 -4 -41 -12 -51 -21 -56 -112
-56 -158 0 -254 119 -214 263 14 51 71 112 122 131 42 16 171 17 195 2z
m-1478 -140 c0 -126 2 -147 19 -167 27 -33 96 -32 124 2 17 21 18 38 15 166
l-3 143 50 0 50 0 0 -195 0 -195 -42 0 c-23 0 -43 5 -45 11 -3 8 -14 7 -35 -5
-40 -20 -115 -21 -153 -1 -51 27 -63 65 -70 220 -3 77 -9 146 -13 153 -6 9 5
12 47 12 l56 0 0 -144z m400 135 c0 -7 140 -184 172 -216 12 -12 6 181 -6 208
-7 15 -2 17 39 17 39 0 46 -3 41 -16 -3 -9 -6 -96 -6 -195 0 -168 -1 -179 -19
-179 -11 0 -60 51 -130 135 -62 74 -115 136 -119 139 -4 2 -6 -15 -5 -37 1
-23 4 -86 6 -139 l3 -98 -41 0 -40 0 3 176 c2 116 0 180 -7 187 -21 21 -10 27
49 27 33 0 60 -4 60 -9z m430 -21 c7 -34 74 -200 80 -200 3 0 26 52 50 115
l45 114 57 1 c55 0 57 -1 49 -22 -9 -24 21 -291 38 -340 l10 -28 -59 0 c-59 0
-59 0 -50 25 9 23 -11 229 -23 241 -2 2 -29 -55 -59 -128 -30 -74 -61 -134
-69 -136 -10 -2 -31 39 -68 133 -30 74 -56 133 -58 131 -10 -9 -34 -196 -30
-228 l5 -38 -45 0 c-39 0 -44 2 -38 18 13 32 54 329 48 351 -5 21 -3 22 53 19
54 -3 59 -5 64 -28z"/>
</g>
</svg>
